<svg xmlns="http://www.w3.org/2000/svg" version="1.1" xmlns:xlink="http://www.w3.org/1999/xlink" xmlns:svgjs="http://svgjs.dev/svgjs" width="1000" height="1000" viewBox="0 0 1000 1000"><rect width="1000" height="1000" fill="#ffffff"></rect><g transform="matrix(0.7,0,0,0.7,149.38741805218478,66.00170040485835)"><svg viewBox="0 0 199 247" data-background-color="#111111" preserveAspectRatio="xMidYMid meet" height="1241" width="1000" xmlns="http://www.w3.org/2000/svg" xmlns:xlink="http://www.w3.org/1999/xlink"><g id="tight-bounds" transform="matrix(1,0,0,1,0.17414829659318798,-0.09999999999999432)"><svg viewBox="0 0 198.65170340681362 247.2" height="247.2" width="198.65170340681362"><g><svg viewBox="0 0 198.65170340681362 247.2" height="247.2" width="198.65170340681362"><g><svg viewBox="0 0 198.65170340681362 247.2" height="247.2" width="198.65170340681362"><g><svg viewBox="0 0 198.65170340681362 247.2" height="247.2" width="198.65170340681362"><g><svg viewBox="0 0 198.65170340681362 247.2" height="247.2" width="198.65170340681362"><g transform="matrix(1,0,0,1,0,0)"><svg width="198.65170340681362" viewBox="2.15 -36.06 29.370000000000005 36.55" height="247.2" data-palette-color="#ffdc00"><path d="M31.52-18.92L31.52-4.47Q30.66-3.47 28.89-2.31 27.12-1.15 24.37-0.33 21.61 0.49 17.7 0.49L17.7 0.49Q13.04 0.49 9.55-1.53 6.05-3.54 4.1-7.4 2.15-11.25 2.15-16.8L2.15-16.8 2.15-18.73Q2.15-24.27 4.04-28.14 5.93-32.01 9.31-34.03 12.7-36.06 17.19-36.06L17.19-36.06Q21.95-36.06 24.96-34.53 27.98-33.01 29.57-30.29 31.15-27.56 31.52-24.05L31.52-24.05 23.83-24.05Q23.58-25.83 22.86-27.08 22.14-28.32 20.83-28.99 19.51-29.66 17.43-29.66L17.43-29.66Q15.11-29.66 13.5-28.45 11.89-27.25 11.05-24.83 10.21-22.41 10.21-18.77L10.21-18.77 10.21-16.8Q10.21-13.18 11.1-10.75 11.99-8.33 13.76-7.12 15.53-5.91 18.19-5.91L18.19-5.91Q19.78-5.91 20.84-6.15 21.9-6.4 22.56-6.76 23.22-7.13 23.58-7.47L23.58-7.47 23.58-13.18 17.31-13.18 17.31-18.92 31.52-18.92Z" opacity="1" transform="matrix(1,0,0,1,0,0)" fill="#000000" class="undefined-text-0" data-fill-palette-color="primary" id="text-0"></path></svg></g></svg></g></svg></g></svg></g><g></g></svg></g><defs></defs></svg><rect width="198.65170340681362" height="247.2" fill="none" stroke="none" visibility="hidden"></rect></g></svg></g></svg>